<?xml version="1.0" standalone="no"?><!DOCTYPE svg PUBLIC "-//W3C//DTD SVG 1.1//EN" "http://www.w3.org/Graphics/SVG/1.1/DTD/svg11.dtd"><svg t="1706265964389" class="icon" viewBox="0 0 1024 1024" version="1.1" xmlns="http://www.w3.org/2000/svg" p-id="6020" width="48" height="48" xmlns:xlink="http://www.w3.org/1999/xlink"><path d="M927 374.8v22.4H666c-15.8 0-28.7-12.8-28.7-28.7V99.7h24.1v256c0 10.6 8.6 19.1 19.1 19.1H927zM638.3 448.4h24.1v22.4h-24.1zM638.3 521.2h24.1v22.4h-24.1zM638.3 593.9h24.1v22.4h-24.1zM638.3 412.1h24.1v22.4h-24.1zM638.3 484.8h24.1v22.4h-24.1zM638.3 557.5h24.1v22.4h-24.1zM643.8 723h-6.5v-8.4zM361.4 99.7h24.2v208.7h-5.5l5.5 7v53.2c0 15.8-12.8 28.7-28.7 28.7H98v-22.4h244.3c10.6 0 19.1-8.6 19.1-19.1V99.7zM402 362.8h24.1v22.4H402z" fill="#595959" p-id="6021"></path><path d="M385.6 308.4v6.9l-5.4-6.9zM361.5 449.2h24.1v22.4h-24.1zM361.5 521.6h24.1V544h-24.1zM361.5 593.9h24.1v22.4h-24.1zM361.5 412.1h24.1v22.4h-24.1zM361.5 485.4h24.1v22.4h-24.1zM361.5 557.7h24.1v22.4h-24.1zM478.6 362.8h24.1v22.4h-24.1zM555.3 362.8h24.1v22.4h-24.1zM440.3 362.8h24.1v22.4h-24.1zM517 362.8h24.1v22.4H517zM593.6 362.8h24.1v22.4h-24.1zM385.6 660.3v263.9h-24.2v-251c0-10.6-8.6-19.1-19.1-19.1H98v-22.5h258.9c15.9 0 28.7 12.9 28.7 28.7zM440.3 638.4h24.1v22.4h-24.1zM517 638.4h24.1v22.4H517zM593.6 638.4h24.1v22.4h-24.1zM402 638.4h24.1v22.4H402zM478.6 638.4h24.1v22.4h-24.1zM555.3 638.4h24.1v22.4h-24.1zM927 631.6v22.5H680.5c-10.6 0-19.1 8.6-19.1 19.1v251h-24.1V723h6.5l-6.5-8.3v-54.3c0-15.8 12.8-28.7 28.7-28.7h261zM319.7 525.5v41.9l-16.4-15.3-24.6 12.2-0.4-0.7v0.7H98v-22.4h174.6l13-6.4-10.7-10zM98 474h221.7v22.4H98zM98 408.7h221.7v22.4H98zM277.6 631.5v-17.3H98v-22.5h179.6v-17.3l42.1 28.5zM571.6 727.9l-0.8 0.4h0.8v195.9h-24.1V733.6l-7-12.1-10.7 9.9v-41.7h45.1l-16.5 15.2zM474.5 689.7h24.1v234.4h-24.1zM404.3 689.7h24.1v234.4h-24.1zM637.3 720.6v8.4h-12.2v195.2H601V729h-18.5l30.6-39.3z" fill="#595959" p-id="6022"></path><path d="M643.8 723h-6.5v-8.4zM927 465.2v22.4H746.6l-13 6.4 10.7 10.1h-44.8v-42l16.3 15.3 24.8-12.2 0.4 0.7v-0.7zM699.5 533.1H927v22.4H699.5zM699.5 598.4H927v22.4H699.5zM927 415.3v22.5H741.7v17.3l-42.2-28.5 42.2-28.5v17.2z" fill="#595959" p-id="6023"></path><path d="M494.1 294v41.6H449l16.6-15.2-13.2-23 0.7-0.4h-0.7V99.7h24.1v192.1l6.9 12zM441.5 296.4l-30.7 39.2-25.2-32.3v-6.9h13.1V99.7h24.2v196.7zM525.3 99.7h24.1v235.9h-24.1zM595.5 99.7h24.1v235.9h-24.1zM385.6 296.4v6.9l-5.4-6.9z" fill="#595959" p-id="6024"></path></svg>